<?xml version="1.0" encoding="utf-8"?>
<!-- Generator: Adobe Illustrator 21.1.0, SVG Export Plug-In . SVG Version: 6.00 Build 0)  -->
<svg version="1.1" id="Layer_1" xmlns="http://www.w3.org/2000/svg" xmlns:xlink="http://www.w3.org/1999/xlink" x="0px" y="0px"
	 viewBox="0 0 200 200" style="enable-background:new 0 0 200 200;" xml:space="preserve">
<style type="text/css">
	.st0{fill:#A1A1A1;}
	.st1{fill:#FFFFFF;}
</style>
<g>
	<g>
		<path class="st0" d="M126.1,82.3c3.6,0,6.6-2.9,6.6-6.6c0-3.6-2.9-6.6-6.6-6.6c-3.6,0-6.6,2.9-6.6,6.6
			C119.5,79.3,122.5,82.3,126.1,82.3z"/>
		<path class="st0" d="M132.5,85h-12.5c1,1.3,1.6,3,1.6,4.7V108c0,2.6-1.3,4.9-3.2,6.3v12.6c0,2.1,1.7,3.8,3.8,3.8
			c1.8,0,3.3-1.3,3.7-3c0.4,1.7,1.9,3,3.7,3c2.1,0,3.8-1.7,3.8-3.8v-17.8c2.2-0.5,3.8-2.5,3.8-4.8V89.9
			C137.5,87.2,135.3,85,132.5,85z"/>
		<path class="st0" d="M81.6,108V89.7c0-1.8,0.6-3.4,1.6-4.7H71c-2.7,0-4.9,2.2-4.9,4.9v14.4c0,2.3,1.6,4.3,3.8,4.8v17.8
			c0,2.1,1.7,3.8,3.8,3.8c1.8,0,3.3-1.3,3.7-3c0.4,1.7,1.9,3,3.7,3c2.1,0,3.8-1.7,3.8-3.8v-12.4C83,113.1,81.6,110.7,81.6,108z"/>
		<path class="st0" d="M77.5,82.3c3.6,0,6.6-2.9,6.6-6.6c0-3.6-2.9-6.6-6.6-6.6c-3.6,0-6.6,2.9-6.6,6.6
			C70.9,79.3,73.8,82.3,77.5,82.3z"/>
		<path class="st1" d="M111.2,112.9h1.6c2.7,0,4.9-2.2,4.9-4.9V89.7c0-2.7-2.2-4.9-4.9-4.9h-6.2l-4.9,6.3l-4.9-6.3h-6.2
			c-2.7,0-4.9,2.2-4.9,4.9V108c0,2.7,2.2,4.9,4.9,4.9h1.6c0,61.7,0-38.3,0,23.6c0,2.7,2.2,4.9,4.9,4.9c2.1,0,3.9-1.3,4.6-3.2
			c0.7,1.9,2.5,3.2,4.6,3.2c2.7,0,4.9-2.2,4.9-4.9C111.2,73.2,111.2,175,111.2,112.9z"/>
		<path class="st1" d="M109.7,73.3c0-4.5-3.6-8.1-8.1-8.1c-4.5,0-8.1,3.6-8.1,8.1c0,4.6,3.9,8.1,8.1,8.1
			C105.8,81.4,109.7,78,109.7,73.3z"/>
		<path class="st0" d="M161.8,107.7h1.3c2.2,0,4-1.8,4-4V89c0-2.2-1.8-4-4-4h-5h-3.9h-4.1h-5c-2.2,0-4,1.8-4,4v14.8c0,2.2,1.8,4,4,4
			h1.3c0,49.9,0-31,0,19.1c0,2.2,1.8,4,4,4c1.7,0,3.1-1.1,3.7-2.6c0.6,1.5,2,2.6,3.7,2.6c2.2,0,4-1.8,4-4
			C161.8,75.6,161.8,157.9,161.8,107.7z"/>
		<path class="st0" d="M160.6,75.7c0-3.6-2.9-6.5-6.5-6.5c-3.6,0-6.5,2.9-6.5,6.5c0,3.8,3.2,6.5,6.5,6.5
			C157.5,82.2,160.6,79.5,160.6,75.7z"/>
		<path class="st0" d="M56.7,107.7h1.3c2.2,0,4-1.8,4-4V89c0-2.2-1.8-4-4-4h-5H49h-4.1h-5c-2.2,0-4,1.8-4,4v14.8c0,2.2,1.8,4,4,4
			h1.3c0,49.9,0-31,0,19.1c0,2.2,1.8,4,4,4c1.7,0,3.1-1.1,3.7-2.6c0.6,1.5,2,2.6,3.7,2.6c2.2,0,4-1.8,4-4
			C56.7,75.6,56.7,157.9,56.7,107.7z"/>
		<path class="st0" d="M55.5,75.7c0-3.6-2.9-6.5-6.5-6.5c-3.6,0-6.5,2.9-6.5,6.5c0,3.8,3.2,6.5,6.5,6.5
			C52.3,82.2,55.5,79.5,55.5,75.7z"/>
	</g>
	<g>
		<path class="st0" d="M48.9,47.6c3.4,0,6.5-2.8,6.5-6.5c0-3.6-2.9-6.5-6.5-6.5c-3.6,0-6.5,2.9-6.5,6.5
			C42.4,44.8,45.5,47.6,48.9,47.6z"/>
		<path class="st0" d="M61.9,54.3c0-2.2-1.8-4-4-4h-18c-2.2,0-4,1.8-4,4V61h26V54.3z"/>
	</g>
	<g>
		<path class="st0" d="M84,47.6c3.4,0,6.5-2.8,6.5-6.5c0-3.6-2.9-6.5-6.5-6.5c-3.6,0-6.5,2.9-6.5,6.5C77.4,44.8,80.6,47.6,84,47.6z"
			/>
		<path class="st0" d="M97,54.3c0-2.2-1.8-4-4-4H75c-2.2,0-4,1.8-4,4V61h26V54.3z"/>
	</g>
	<g>
		<path class="st0" d="M119,47.6c3.4,0,6.5-2.8,6.5-6.5c0-3.6-2.9-6.5-6.5-6.5c-3.6,0-6.5,2.9-6.5,6.5
			C112.5,44.8,115.6,47.6,119,47.6z"/>
		<path class="st0" d="M132,54.3c0-2.2-1.8-4-4-4h-18c-2.2,0-4,1.8-4,4V61h26V54.3z"/>
	</g>
	<g>
		<path class="st0" d="M154.1,47.6c3.4,0,6.5-2.8,6.5-6.5c0-3.6-2.9-6.5-6.5-6.5c-3.6,0-6.5,2.9-6.5,6.5
			C147.5,44.8,150.7,47.6,154.1,47.6z"/>
		<path class="st0" d="M167.1,54.3c0-2.2-1.8-4-4-4h-18c-2.2,0-4,1.8-4,4V61h26V54.3z"/>
	</g>
	<g>
		<path class="st0" d="M48.9,13.8c3.4,0,6.5-2.8,6.5-6.5c0-3.6-2.9-6.5-6.5-6.5c-3.6,0-6.5,2.9-6.5,6.5C42.4,11,45.5,13.8,48.9,13.8
			z"/>
		<path class="st0" d="M61.9,20.5c0-2.2-1.8-4-4-4h-18c-2.2,0-4,1.8-4,4v6.7h26V20.5z"/>
	</g>
	<g>
		<path class="st0" d="M84,13.8c3.4,0,6.5-2.8,6.5-6.5c0-3.6-2.9-6.5-6.5-6.5c-3.6,0-6.5,2.9-6.5,6.5C77.4,11,80.6,13.8,84,13.8z"/>
		<path class="st0" d="M97,20.5c0-2.2-1.8-4-4-4H75c-2.2,0-4,1.8-4,4v6.7h26V20.5z"/>
	</g>
	<g>
		<path class="st0" d="M119,13.8c3.4,0,6.5-2.8,6.5-6.5c0-3.6-2.9-6.5-6.5-6.5c-3.6,0-6.5,2.9-6.5,6.5C112.5,11,115.6,13.8,119,13.8
			z"/>
		<path class="st0" d="M132,20.5c0-2.2-1.8-4-4-4h-18c-2.2,0-4,1.8-4,4v6.7h26V20.5z"/>
	</g>
	<g>
		<path class="st0" d="M154.1,13.8c3.4,0,6.5-2.8,6.5-6.5c0-3.6-2.9-6.5-6.5-6.5c-3.6,0-6.5,2.9-6.5,6.5
			C147.5,11,150.7,13.8,154.1,13.8z"/>
		<path class="st0" d="M167.1,20.5c0-2.2-1.8-4-4-4h-18c-2.2,0-4,1.8-4,4v6.7h26V20.5z"/>
	</g>
</g>
<g>
	<path class="st0" d="M34.9,165.9c0,0.1,0,0.1,0,0.1c0,1.4,0.5,2.1,1.2,2.1c0.7,0,1.2-0.6,1.2-1.4c0-1-0.8-1.9-2.1-3.2
		c-1.4-1.4-2.4-2.4-2.4-4.4c0-2.2,1.3-3.5,3.5-3.5c2,0,3.3,1.3,3.5,3.7l-2.3,0.2c-0.1-1.3-0.4-1.9-1.1-1.9c-0.7,0-1.1,0.4-1.1,1.2
		c0,1.1,0.7,1.8,1.7,2.8c1.7,1.6,2.8,2.9,2.8,5c0,2.2-1.5,3.7-3.6,3.7c-2.4,0-3.6-1.4-3.7-4.2L34.9,165.9z"/>
	<path class="st0" d="M41.9,155.7h2.5v1.8c1-1.2,1.9-2,2.8-2c1.1,0,1.8,0.7,2.1,2c1-1.2,1.9-2,2.8-2c1.8,0,2.2,1.5,2.2,4.4V170h-2.6
		v-10.2c0-1.2-0.3-1.8-1-1.8c-0.4,0-0.8,0.3-1.2,1v11h-2.7v-10.2c0-1.2-0.3-1.8-1-1.8c-0.4,0-0.8,0.3-1.2,1v11h-2.7V155.7z"/>
	<path class="st0" d="M62,168.6c-0.8,1.1-1.7,1.6-2.7,1.6c-1.7,0-2.8-1.3-2.8-3.3c0-2.8,1.8-4.7,5.5-6.4v-0.8c0-1.3-0.4-1.9-1.3-1.9
		s-1.5,0.7-1.5,1.9h-2.5c0.2-2.6,1.8-4.1,4.3-4.1c2.7,0,3.7,1.5,3.7,4.8v6.6c0,1.2,0.1,2.3,0.3,3.1h-2.6L62,168.6z M59.1,166.1
		c0,1,0.5,1.6,1.2,1.6c0.6,0,1.1-0.4,1.7-1.1v-4C60,163.6,59.1,164.7,59.1,166.1z"/>
	<path class="st0" d="M67.2,150.8h2.6V170h-2.6V150.8z"/>
	<path class="st0" d="M72.6,150.8h2.6V170h-2.6V150.8z"/>
	<path class="st0" d="M91.1,165.9c0,2.8-1.5,4.4-4,4.4c-2.6,0-3.9-1.7-3.9-5.1v-4.6c0-3.4,1.3-5.1,3.9-5.1c2.5,0,4,1.6,4,4.5v0.6
		h-2.5v-1c0-1.3-0.4-1.9-1.4-1.9c-1,0-1.4,0.6-1.4,1.9v6.3c0,1.3,0.4,2,1.4,2c1,0,1.4-0.6,1.4-2v-1h2.5V165.9z"/>
	<path class="st0" d="M93.5,150.8h2.6V170h-2.6V150.8z"/>
	<path class="st0" d="M103.9,168.6c-0.8,1.1-1.7,1.6-2.7,1.6c-1.7,0-2.8-1.3-2.8-3.3c0-2.8,1.8-4.7,5.5-6.4v-0.8
		c0-1.3-0.4-1.9-1.3-1.9c-0.9,0-1.5,0.7-1.5,1.9h-2.5c0.2-2.6,1.8-4.1,4.3-4.1c2.7,0,3.7,1.5,3.7,4.8v6.6c0,1.2,0.1,2.3,0.3,3.1
		h-2.6L103.9,168.6z M101,166.1c0,1,0.5,1.6,1.2,1.6c0.6,0,1.1-0.4,1.7-1.1v-4C101.9,163.6,101,164.7,101,166.1z"/>
	<path class="st0" d="M110.9,165.9c0,0.1,0,0.1,0,0.1c0,1.4,0.5,2.1,1.2,2.1c0.7,0,1.2-0.6,1.2-1.4c0-1-0.8-1.9-2.1-3.2
		c-1.4-1.4-2.4-2.4-2.4-4.4c0-2.2,1.3-3.5,3.5-3.5c2,0,3.3,1.3,3.5,3.7l-2.3,0.2c-0.1-1.3-0.4-1.9-1.1-1.9c-0.7,0-1.1,0.4-1.1,1.2
		c0,1.1,0.7,1.8,1.7,2.8c1.7,1.6,2.8,2.9,2.8,5c0,2.2-1.5,3.7-3.6,3.7c-2.4,0-3.6-1.4-3.7-4.2L110.9,165.9z"/>
	<path class="st0" d="M119.9,165.9c0,0.1,0,0.1,0,0.1c0,1.4,0.5,2.1,1.2,2.1c0.7,0,1.2-0.6,1.2-1.4c0-1-0.8-1.9-2.1-3.2
		c-1.4-1.4-2.4-2.4-2.4-4.4c0-2.2,1.3-3.5,3.5-3.5c2,0,3.3,1.3,3.5,3.7l-2.3,0.2c-0.1-1.3-0.4-1.9-1.1-1.9c-0.7,0-1.1,0.4-1.1,1.2
		c0,1.1,0.7,1.8,1.7,2.8c1.7,1.6,2.8,2.9,2.8,5c0,2.2-1.5,3.7-3.6,3.7c-2.4,0-3.6-1.4-3.7-4.2L119.9,165.9z"/>
	<path class="st0" d="M134.7,165.9c0,2.8-1.5,4.4-4,4.4c-2.6,0-3.9-1.7-3.9-5.1v-4.6c0-3.4,1.2-5.1,4-5.1c2.7,0,4,1.9,4,5.7v2.2
		h-5.4v2.7c0,1.3,0.4,2,1.4,2s1.4-0.6,1.4-2v-1h2.5V165.9z M129.4,161.1h2.7v-1.4c0-1.3-0.4-1.9-1.4-1.9s-1.4,0.6-1.4,1.9V161.1z"/>
	<path class="st0" d="M139,165.9c0,0.1,0,0.1,0,0.1c0,1.4,0.5,2.1,1.2,2.1c0.7,0,1.2-0.6,1.2-1.4c0-1-0.8-1.9-2.1-3.2
		c-1.4-1.4-2.4-2.4-2.4-4.4c0-2.2,1.3-3.5,3.5-3.5c2,0,3.3,1.3,3.5,3.7l-2.3,0.2c-0.1-1.3-0.4-1.9-1.1-1.9c-0.7,0-1.1,0.4-1.1,1.2
		c0,1.1,0.7,1.8,1.7,2.8c1.7,1.6,2.8,2.9,2.8,5c0,2.2-1.5,3.7-3.6,3.7c-2.4,0-3.6-1.4-3.7-4.2L139,165.9z"/>
	<path class="st0" d="M156,168.6c-0.8,1.1-1.7,1.6-2.7,1.6c-1.7,0-2.8-1.3-2.8-3.3c0-2.8,1.8-4.7,5.5-6.4v-0.8
		c0-1.3-0.4-1.9-1.3-1.9c-0.9,0-1.5,0.7-1.5,1.9h-2.5c0.2-2.6,1.8-4.1,4.3-4.1c2.7,0,3.7,1.5,3.7,4.8v6.6c0,1.2,0.1,2.3,0.3,3.1
		h-2.6L156,168.6z M153.1,166.1c0,1,0.5,1.6,1.2,1.6c0.6,0,1.1-0.4,1.7-1.1v-4C154,163.6,153.1,164.7,153.1,166.1z"/>
	<path class="st0" d="M162,158h-1.5v-2.2h1.5v-3.8h2.7v3.8h1.9v2.2h-1.9v7.9c0,1.4,0.1,2,1.1,2c0.3,0,0.5,0,0.8-0.1v2.2
		c-0.5,0.2-1,0.2-1.5,0.2c-2.5,0-3.1-1.2-3.1-4.5V158z"/>
	<path class="st1" d="M3.6,196.8v-19.2h2.8v19.2H3.6z"/>
	<path class="st1" d="M9.4,177.6h2.7l4.3,14.8c-0.5-4.6-0.7-9.1-0.7-13.4c0-0.5,0-0.9,0-1.4h2.5v19.2h-2.4l-4.7-16.3
		c0.5,5.3,0.7,10.8,0.7,16.3H9.4V177.6z"/>
	<path class="st1" d="M23.2,180h-2.6v-2.4h8.1v2.4H26v16.8h-2.8V180z"/>
	<path class="st1" d="M30.8,177.6H34c4.4,0,5.8,1.2,5.8,5.6c0,2.5-0.7,4.1-2.2,4.9l2.5,8.7h-2.9l-2.3-8.1h-1.2v8.1h-2.8V177.6z
		 M34.4,186.2c2,0,2.5-0.8,2.5-3.2c0-2.2-0.6-3-2.3-3h-0.9v6.2H34.4z"/>
	<path class="st1" d="M46.9,177.2c3.4,0,4.6,2.2,4.6,6.8v6.2c0,4.6-1.2,6.9-4.6,6.9s-4.6-2.2-4.6-6.9v-6.2
		C42.2,179.4,43.5,177.2,46.9,177.2z M45.1,191.8c0,1.9,0.5,2.9,1.7,2.9c1.2,0,1.7-1,1.7-2.9v-9.3c0-1.9-0.5-2.9-1.7-2.9
		c-1.2,0-1.7,1-1.7,2.9V191.8z"/>
	<path class="st1" d="M54.3,177.6h3c4.4,0,5.9,1.2,5.9,5.4v8.6c0,3.6-1.4,5.2-4.8,5.2h-4.2V177.6z M58,194.3c1.8,0,2.4-1,2.4-3.4v-8
		c0-2.1-0.5-2.8-2.4-2.8h-0.8v14.3H58z"/>
	<path class="st1" d="M66.1,177.6H69v14c0,2,0.4,2.9,1.6,2.9c1.2,0,1.6-1,1.6-2.9v-14H75v13.2c0,4.4-1.1,6.3-4.4,6.3
		c-3.3,0-4.4-2-4.4-6.3V177.6z"/>
	<path class="st1" d="M82.4,197.2c-3.4,0-4.6-2.2-4.6-6.9v-6.2c0-4.6,1.2-6.8,4.6-6.8c3,0,4.6,2,4.6,5.9v1h-2.9v-1.5
		c0-1.9-0.5-2.9-1.7-2.9c-1.2,0-1.7,1-1.7,2.9v9.3c0,1.9,0.5,2.9,1.7,2.9c1.2,0,1.7-1,1.7-2.9V190H87v1.2
		C87,195.1,85.4,197.2,82.4,197.2z"/>
	<path class="st1" d="M91.2,180h-2.6v-2.4h8.1v2.4h-2.6v16.8h-2.8V180z"/>
	<path class="st1" d="M103.2,177.2c3.4,0,4.6,2.2,4.6,6.8v6.2c0,4.6-1.2,6.9-4.6,6.9s-4.6-2.2-4.6-6.9v-6.2
		C98.6,179.4,99.8,177.2,103.2,177.2z M101.5,191.8c0,1.9,0.5,2.9,1.7,2.9s1.7-1,1.7-2.9v-9.3c0-1.9-0.5-2.9-1.7-2.9s-1.7,1-1.7,2.9
		V191.8z"/>
	<path class="st1" d="M110.7,177.6h3.1c4.4,0,5.8,1.2,5.8,5.6c0,2.5-0.7,4.1-2.2,4.9l2.5,8.7h-2.9l-2.3-8.1h-1.2v8.1h-2.8V177.6z
		 M114.2,186.2c2,0,2.5-0.8,2.5-3.2c0-2.2-0.6-3-2.3-3h-0.9v6.2H114.2z"/>
	<path class="st1" d="M124.2,188.9l-3.3-11.3h3l1.8,8.7l1.9-8.7h2.8L127,189v7.8h-2.8V188.9z"/>
	<path class="st1" d="M137.2,177.6h2.8v16.5h5.2v2.7h-8V177.6z"/>
	<path class="st1" d="M147.3,177.6h7.6v2.6h-4.8v5.3h3.7v2.6h-3.7v6.1h5.2v2.6h-8V177.6z"/>
	<path class="st1" d="M156.7,177.6h2.7l1.3,9.9c0.3,2.5,0.6,4.9,0.7,7c0.2-2.9,0.4-5.3,0.6-7l1.2-9.9h2.8l-3.2,19.2H160L156.7,177.6
		z"/>
	<path class="st1" d="M168.3,177.6h7.6v2.6h-4.8v5.3h3.7v2.6h-3.7v6.1h5.2v2.6h-8V177.6z"/>
	<path class="st1" d="M178.5,177.6h2.8v16.5h5.2v2.7h-8V177.6z"/>
	<path class="st1" d="M190.7,191.4c0,0.1,0,0.1,0,0.2c0,2.1,0.5,3.1,1.6,3.1c0.9,0,1.5-0.7,1.5-2.1c0-1-0.4-1.9-1.1-2.8
		c-1.4-1.9-2.8-3.2-3.5-4.6c-0.7-1.2-1-2.3-1-3.3c0-2.9,1.6-4.6,4-4.6c2.5,0,4,1.7,4.1,4.8l-2.6,0.3c-0.1-1.8-0.5-2.6-1.6-2.6
		c-0.7,0-1.3,0.7-1.3,1.8c0,0.9,0.5,2,1.4,3.2c1.2,1.5,2.3,2.8,3.1,4c0.8,1.2,1.1,2.5,1.1,3.9c0,2.7-1.8,4.6-4.2,4.6
		c-2.5,0-4.1-1.9-4.3-5.4L190.7,191.4z"/>
</g>
<g>
</g>
<g>
</g>
<g>
</g>
<g>
</g>
<g>
</g>
<g>
</g>
<g>
</g>
<g>
</g>
<g>
</g>
<g>
</g>
<g>
</g>
<g>
</g>
<g>
</g>
<g>
</g>
<g>
</g>
</svg>
