<?xml version="1.0" encoding="utf-8"?>
<!-- Generator: Adobe Illustrator 21.1.0, SVG Export Plug-In . SVG Version: 6.00 Build 0)  -->
<svg version="1.1" id="Layer_1" xmlns="http://www.w3.org/2000/svg" xmlns:xlink="http://www.w3.org/1999/xlink" x="0px" y="0px"
	 viewBox="0 0 200 200" style="enable-background:new 0 0 200 200;" xml:space="preserve">
<style type="text/css">
	.st0{fill:#A1A1A1;}
	.st1{fill:#FFFFFF;}
</style>
<g>
	<path class="st0" d="M350.3,802h7.4v2.5H353v5.2h3.6v2.6H353v5.9h5.1v2.5h-7.8V802z"/>
	<path class="st0" d="M360,806.8h2.4v1.7c0.9-1.2,1.9-1.9,2.7-1.9c1.1,0,1.7,0.7,2,1.9c0.9-1.2,1.9-1.9,2.7-1.9
		c1.8,0,2.2,1.5,2.2,4.3v9.8h-2.6v-9.9c0-1.2-0.3-1.7-0.9-1.7c-0.4,0-0.8,0.3-1.2,0.9v10.7h-2.6v-9.9c0-1.2-0.3-1.7-0.9-1.7
		c-0.4,0-0.8,0.3-1.2,0.9v10.7H360V806.8z"/>
	<path class="st0" d="M374.6,806.8h2.5v1.4c0.8-1.1,1.7-1.6,2.6-1.6c1.7,0,2.5,1.4,2.5,4.4v5.7c0,2.8-0.8,4.2-2.6,4.2
		c-0.9,0-1.6-0.5-2.4-1.5v5.6h-2.6V806.8z M378.4,818.4c0.8,0,1.1-0.7,1.1-2.3v-4.5c0-1.9-0.2-2.7-1-2.7c-0.4,0-0.9,0.2-1.4,0.7v8.1
		C377.6,818.2,378,818.4,378.4,818.4z"/>
	<path class="st0" d="M384.6,802h2.6v6.4c0.8-1.1,1.9-1.8,2.7-1.8c1.9,0,2.3,1.4,2.3,4.3v9.8h-2.6v-9.9c0-1.2-0.3-1.8-1-1.8
		c-0.4,0-1,0.3-1.4,1v10.7h-2.6V802z"/>
	<path class="st0" d="M399.7,819.3c-0.7,1-1.7,1.5-2.7,1.5c-1.7,0-2.7-1.2-2.7-3.3c0-2.8,1.7-4.6,5.3-6.2v-0.7
		c0-1.2-0.4-1.8-1.3-1.8s-1.4,0.7-1.4,1.8h-2.5c0.2-2.6,1.7-4,4.2-4c2.6,0,3.6,1.5,3.6,4.7v6.4c0,1.2,0.1,2.2,0.3,3H400L399.7,819.3
		z M396.9,816.9c0,1,0.5,1.6,1.2,1.6c0.6,0,1.1-0.4,1.6-1.1v-3.8C397.8,814.4,396.9,815.5,396.9,816.9z"/>
	<path class="st0" d="M406.5,816.6c0,0.1,0,0.1,0,0.1c0,1.3,0.4,2,1.2,2c0.6,0,1.1-0.5,1.1-1.4c0-1-0.8-1.9-2.1-3.1
		c-1.3-1.3-2.3-2.3-2.3-4.3c0-2.2,1.2-3.4,3.4-3.4c2,0,3.2,1.3,3.4,3.6l-2.2,0.2c-0.1-1.2-0.4-1.8-1.1-1.8c-0.7,0-1.1,0.4-1.1,1.1
		c0,1.1,0.7,1.8,1.7,2.7c1.7,1.6,2.8,2.9,2.8,4.8c0,2.2-1.4,3.6-3.5,3.6c-2.3,0-3.5-1.4-3.6-4.1L406.5,816.6z"/>
	<path class="st0" d="M413.4,802h2.6v2.6h-2.6V802z M413.4,806.8h2.6v13.9h-2.6V806.8z"/>
	<path class="st0" d="M420.3,816.6c0,0.1,0,0.1,0,0.1c0,1.3,0.4,2,1.2,2c0.6,0,1.1-0.5,1.1-1.4c0-1-0.8-1.9-2.1-3.1
		c-1.3-1.3-2.3-2.3-2.3-4.3c0-2.2,1.2-3.4,3.4-3.4c2,0,3.2,1.3,3.4,3.6l-2.2,0.2c-0.1-1.2-0.4-1.8-1.1-1.8c-0.7,0-1.1,0.4-1.1,1.1
		c0,1.1,0.7,1.8,1.7,2.7c1.7,1.6,2.8,2.9,2.8,4.8c0,2.2-1.4,3.6-3.5,3.6c-2.3,0-3.5-1.4-3.6-4.1L420.3,816.6z"/>
	<path class="st0" d="M439.8,816c0,3.3-1.2,4.9-3.9,4.9c-2.7,0-3.9-1.6-3.9-4.9v-4.5c0-3.3,1.2-4.9,3.9-4.9c2.7,0,3.9,1.6,3.9,4.9
		V816z M435.9,808.8c-0.9,0-1.3,0.6-1.3,1.9v6.1c0,1.3,0.4,1.9,1.3,1.9c0.9,0,1.3-0.6,1.3-1.9v-6.1
		C437.2,809.4,436.8,808.8,435.9,808.8z"/>
	<path class="st0" d="M442.2,806.8h2.4v1.7c1-1.2,2-1.9,2.9-1.9c1.9,0,2.3,1.4,2.3,4.3v9.8h-2.6v-9.9c0-1.2-0.3-1.8-1-1.8
		c-0.4,0-1,0.3-1.4,1v10.7h-2.6V806.8z"/>
	<path class="st1" d="M328,840.4c0,0.1,0,0.1,0,0.2c0,2,0.5,3,1.6,3c0.9,0,1.4-0.7,1.4-2.1c0-1-0.4-1.8-1.1-2.8
		c-1.3-1.8-2.7-3.2-3.4-4.5c-0.6-1.2-1-2.3-1-3.3c0-2.8,1.5-4.5,3.9-4.5c2.4,0,3.9,1.7,4,4.7l-2.5,0.3c-0.1-1.7-0.5-2.6-1.5-2.6
		c-0.7,0-1.2,0.7-1.2,1.7c0,0.9,0.4,2,1.3,3.1c1.2,1.5,2.3,2.7,3,3.9c0.7,1.2,1.1,2.4,1.1,3.8c0,2.7-1.7,4.5-4.1,4.5
		c-2.5,0-4-1.8-4.2-5.2L328,840.4z"/>
	<path class="st1" d="M337.7,829.4h-2.6V827h7.9v2.4h-2.6v16.3h-2.8V829.4z"/>
	<path class="st1" d="M345.1,827h2.8v13.6c0,1.9,0.4,2.9,1.5,2.9c1.2,0,1.5-0.9,1.5-2.9V827h2.7v12.8c0,4.2-1,6.2-4.3,6.2
		c-3.3,0-4.3-1.9-4.3-6.2V827z"/>
	<path class="st1" d="M356.6,827h2.9c4.2,0,5.8,1.1,5.8,5.2v8.3c0,3.5-1.4,5.1-4.7,5.1h-4.1V827z M360.2,843.2c1.8,0,2.4-1,2.4-3.3
		v-7.8c0-2.1-0.5-2.8-2.3-2.8h-0.8v13.9H360.2z"/>
	<path class="st1" d="M368.1,827h7.4v2.5h-4.6v5.2h3.6v2.6h-3.6v5.9h5.1v2.5h-7.8V827z"/>
	<path class="st1" d="M378.1,827h2.7l4.2,14.4c-0.5-4.5-0.7-8.8-0.7-13c0-0.4,0-0.9,0-1.4h2.5v18.7h-2.3l-4.6-15.9
		c0.4,5.2,0.7,10.5,0.7,15.9h-2.5V827z"/>
	<path class="st1" d="M391.4,829.4h-2.6V827h7.9v2.4h-2.6v16.3h-2.8V829.4z"/>
	<path class="st1" d="M395.8,848.1l7.3-21.4h1.8l-7.3,21.4H395.8z"/>
	<path class="st1" d="M406.6,827h8v2.5h-5v5.1h3.7v2.6h-3.7v8.4h-2.9V827z"/>
	<path class="st1" d="M417.6,827h3.6l2.9,18.7h-2.8l-0.5-3.8H418l-0.4,3.8h-2.7L417.6,827z M420.5,839.4l-1-10.8h-0.1l-1.1,10.8
		H420.5z"/>
	<path class="st1" d="M430.3,846c-3.3,0-4.5-2.1-4.5-6.7v-6.1c0-4.5,1.2-6.7,4.5-6.7c2.9,0,4.5,2,4.5,5.7v0.9h-2.8v-1.5
		c0-1.9-0.5-2.8-1.7-2.8c-1.2,0-1.7,0.9-1.7,2.8v9c0,1.9,0.5,2.8,1.7,2.8c1.2,0,1.7-0.9,1.7-2.8V839h2.8v1.2
		C434.8,844,433.2,846,430.3,846z"/>
	<path class="st1" d="M437.2,827h2.8v13.6c0,1.9,0.4,2.9,1.5,2.9c1.2,0,1.5-0.9,1.5-2.9V827h2.7v12.8c0,4.2-1,6.2-4.3,6.2
		s-4.3-1.9-4.3-6.2V827z"/>
	<path class="st1" d="M448.7,827h2.8v16.1h5.1v2.6h-7.8V827z"/>
	<path class="st1" d="M459.1,829.4h-2.6V827h7.9v2.4h-2.6v16.3h-2.8V829.4z"/>
	<path class="st1" d="M468.9,838l-3.2-11h2.9l1.8,8.4l1.8-8.4h2.8l-3.3,11v7.6h-2.8V838z"/>
	<path class="st1" d="M337.9,872c-3.3,0-4.5-2.1-4.5-6.7v-6.1c0-4.5,1.2-6.7,4.5-6.7c2.9,0,4.5,2,4.5,5.7v0.9h-2.8v-1.5
		c0-1.9-0.5-2.8-1.7-2.8c-1.2,0-1.7,0.9-1.7,2.8v9c0,1.9,0.5,2.8,1.7,2.8c1.2,0,1.7-0.9,1.7-2.8V865h2.8v1.2
		C342.4,870,340.8,872,337.9,872z"/>
	<path class="st1" d="M349.1,852.6c3.3,0,4.5,2.1,4.5,6.7v6.1c0,4.5-1.2,6.7-4.5,6.7s-4.5-2.1-4.5-6.7v-6.1
		C344.7,854.8,345.8,852.6,349.1,852.6z M347.5,866.8c0,1.9,0.5,2.8,1.7,2.8s1.7-0.9,1.7-2.8v-9c0-1.9-0.5-2.8-1.7-2.8
		s-1.7,0.9-1.7,2.8V866.8z"/>
	<path class="st1" d="M356.4,853h2.8v16.1h5.1v2.6h-7.8V853z"/>
	<path class="st1" d="M366.2,853h2.8v16.1h5.1v2.6h-7.8V853z"/>
	<path class="st1" d="M378.3,853h3.6l2.9,18.7h-2.8l-0.5-3.8h-2.8l-0.4,3.8h-2.7L378.3,853z M381.2,865.4l-1-10.8H380l-1.1,10.8
		H381.2z"/>
	<path class="st1" d="M386.9,853h3.5c3.9,0,5.3,1.1,5.3,4.9c0,2.2-0.5,3.5-1.9,4.1c1.5,0.6,2.1,2,2.1,4.4c0,3.8-1.6,5.4-5.4,5.4
		h-3.6V853z M390.5,860.8c1.8,0,2.3-0.8,2.3-2.8c0-2-0.6-2.7-2.3-2.7h-0.9v5.4H390.5z M390.6,869.3c1.9,0,2.5-0.9,2.5-3.2
		c0-2.1-0.6-2.8-2.5-2.8h-1v6H390.6z"/>
	<path class="st1" d="M402.7,852.6c3.3,0,4.5,2.1,4.5,6.7v6.1c0,4.5-1.2,6.7-4.5,6.7s-4.5-2.1-4.5-6.7v-6.1
		C398.2,854.8,399.4,852.6,402.7,852.6z M401.1,866.8c0,1.9,0.5,2.8,1.7,2.8c1.2,0,1.7-0.9,1.7-2.8v-9c0-1.9-0.5-2.8-1.7-2.8
		c-1.2,0-1.7,0.9-1.7,2.8V866.8z"/>
	<path class="st1" d="M410,853h3c4.2,0,5.7,1.2,5.7,5.4c0,2.5-0.6,4-2.2,4.8l2.5,8.4h-2.8l-2.2-7.8h-1.2v7.8H410V853z M413.4,861.4
		c1.9,0,2.5-0.8,2.5-3.1c0-2.1-0.5-2.9-2.2-2.9h-0.9v6H413.4z"/>
	<path class="st1" d="M423.5,853h3.6l2.9,18.7h-2.8l-0.5-3.8H424l-0.4,3.8h-2.7L423.5,853z M426.5,865.4l-1-10.8h-0.1l-1.1,10.8
		H426.5z"/>
	<path class="st1" d="M432.8,855.4h-2.6V853h7.9v2.4h-2.6v16.3h-2.8V855.4z"/>
	<path class="st1" d="M440.3,871.7V853h2.8v18.7H440.3z"/>
	<path class="st1" d="M450.3,852.6c3.3,0,4.5,2.1,4.5,6.7v6.1c0,4.5-1.2,6.7-4.5,6.7s-4.5-2.1-4.5-6.7v-6.1
		C445.8,854.8,447,852.6,450.3,852.6z M448.6,866.8c0,1.9,0.5,2.8,1.7,2.8c1.2,0,1.7-0.9,1.7-2.8v-9c0-1.9-0.5-2.8-1.7-2.8
		c-1.2,0-1.7,0.9-1.7,2.8V866.8z"/>
	<path class="st1" d="M457.5,853h2.7l4.2,14.4c-0.5-4.5-0.7-8.8-0.7-13c0-0.4,0-0.9,0-1.4h2.5v18.7h-2.3l-4.6-15.9
		c0.4,5.2,0.7,10.5,0.7,15.9h-2.5V853z"/>
	<path class="st0" d="M314.3,881.9h-1.5v-2.1h1.5V878c0-2.4,0.7-3.2,2.9-3.2h1.3v2.1H318c-0.9,0-1.1,0.4-1.1,1.4v1.4h1.6v2.1h-1.6
		v11.7h-2.6V881.9z"/>
	<path class="st0" d="M328.1,889c0,3.3-1.2,4.9-3.9,4.9c-2.7,0-3.9-1.6-3.9-4.9v-4.5c0-3.3,1.2-4.9,3.9-4.9c2.7,0,3.9,1.6,3.9,4.9
		V889z M324.2,881.8c-0.9,0-1.3,0.6-1.3,1.9v6.1c0,1.3,0.4,1.9,1.3,1.9c0.9,0,1.3-0.6,1.3-1.9v-6.1
		C325.5,882.4,325.1,881.8,324.2,881.8z"/>
	<path class="st0" d="M330.5,879.8h2.4v1.8c0.7-1.3,1.6-2,3-2v2.8c-0.4-0.1-0.7-0.1-1.2-0.1c-1.4,0-1.7,0.8-1.7,2.5v8.9h-2.6V879.8z
		"/>
	<path class="st0" d="M342.5,879.8h2.4v1.8c0.7-1.3,1.6-2,3-2v2.8c-0.4-0.1-0.7-0.1-1.2-0.1c-1.4,0-1.7,0.8-1.7,2.5v8.9h-2.6V879.8z
		"/>
	<path class="st0" d="M357.3,889.6c0,2.7-1.5,4.3-3.9,4.3c-2.5,0-3.8-1.6-3.8-4.9v-4.5c0-3.3,1.2-4.9,3.9-4.9c2.6,0,3.9,1.8,3.9,5.5
		v2.1h-5.3v2.6c0,1.3,0.4,1.9,1.3,1.9s1.3-0.6,1.3-1.9v-1h2.5V889.6z M352.2,885h2.6v-1.4c0-1.3-0.4-1.9-1.3-1.9s-1.3,0.6-1.3,1.9
		V885z"/>
	<path class="st0" d="M361.5,889.6c0,0.1,0,0.1,0,0.1c0,1.3,0.4,2,1.2,2c0.6,0,1.1-0.5,1.1-1.4c0-1-0.8-1.9-2.1-3.1
		c-1.3-1.3-2.3-2.3-2.3-4.3c0-2.2,1.2-3.4,3.4-3.4c2,0,3.2,1.3,3.4,3.6l-2.2,0.2c-0.1-1.2-0.4-1.8-1.1-1.8c-0.7,0-1.1,0.4-1.1,1.1
		c0,1.1,0.7,1.8,1.7,2.7c1.7,1.6,2.8,2.9,2.8,4.8c0,2.2-1.4,3.6-3.5,3.6c-2.3,0-3.5-1.4-3.6-4.1L361.5,889.6z"/>
	<path class="st0" d="M375.9,889.6c0,2.7-1.5,4.3-3.9,4.3c-2.5,0-3.8-1.6-3.8-4.9v-4.5c0-3.3,1.2-4.9,3.9-4.9c2.6,0,3.9,1.8,3.9,5.5
		v2.1h-5.3v2.6c0,1.3,0.4,1.9,1.3,1.9s1.3-0.6,1.3-1.9v-1h2.5V889.6z M370.8,885h2.6v-1.4c0-1.3-0.4-1.9-1.3-1.9s-1.3,0.6-1.3,1.9
		V885z"/>
	<path class="st0" d="M383.3,892.3c-0.7,1-1.7,1.5-2.7,1.5c-1.7,0-2.7-1.2-2.7-3.3c0-2.8,1.7-4.6,5.3-6.2v-0.7
		c0-1.2-0.4-1.8-1.3-1.8s-1.4,0.7-1.4,1.8h-2.5c0.2-2.6,1.7-4,4.2-4c2.6,0,3.6,1.5,3.6,4.7v6.4c0,1.2,0.1,2.2,0.3,3h-2.5
		L383.3,892.3z M380.5,889.9c0,1,0.5,1.6,1.2,1.6c0.6,0,1.1-0.4,1.6-1.1v-3.8C381.4,887.4,380.5,888.5,380.5,889.9z"/>
	<path class="st0" d="M388.3,879.8h2.4v1.8c0.7-1.3,1.6-2,3-2v2.8c-0.4-0.1-0.7-0.1-1.2-0.1c-1.4,0-1.7,0.8-1.7,2.5v8.9h-2.6V879.8z
		"/>
	<path class="st0" d="M403.1,889.6c0,2.7-1.5,4.3-3.9,4.3c-2.5,0-3.8-1.6-3.8-4.9v-4.5c0-3.3,1.2-4.9,3.8-4.9c2.5,0,3.9,1.5,3.9,4.4
		v0.6h-2.5v-1c0-1.3-0.4-1.9-1.3-1.9c-0.9,0-1.3,0.6-1.3,1.9v6.1c0,1.3,0.4,1.9,1.3,1.9c0.9,0,1.3-0.6,1.3-1.9v-1h2.5V889.6z"/>
	<path class="st0" d="M405.4,875h2.6v6.4c0.8-1.1,1.9-1.8,2.7-1.8c1.9,0,2.3,1.4,2.3,4.3v9.8h-2.6v-9.9c0-1.2-0.3-1.8-1-1.8
		c-0.4,0-1,0.3-1.4,1v10.7h-2.6V875z"/>
	<path class="st0" d="M420.7,879.8h2.5v1.4c0.8-1.1,1.7-1.6,2.6-1.6c1.7,0,2.5,1.4,2.5,4.4v5.7c0,2.8-0.8,4.2-2.6,4.2
		c-0.9,0-1.6-0.5-2.4-1.5v5.6h-2.6V879.8z M424.6,891.4c0.8,0,1.1-0.7,1.1-2.3v-4.5c0-1.9-0.2-2.7-1-2.7c-0.4,0-0.9,0.2-1.4,0.7v8.1
		C423.8,891.2,424.2,891.4,424.6,891.4z"/>
	<path class="st0" d="M430.8,879.8h2.4v1.8c0.7-1.3,1.6-2,3-2v2.8c-0.4-0.1-0.7-0.1-1.2-0.1c-1.4,0-1.7,0.8-1.7,2.5v8.9h-2.6V879.8z
		"/>
	<path class="st0" d="M445.6,889c0,3.3-1.2,4.9-3.9,4.9c-2.7,0-3.9-1.6-3.9-4.9v-4.5c0-3.3,1.2-4.9,3.9-4.9c2.7,0,3.9,1.6,3.9,4.9
		V889z M441.7,881.8c-0.9,0-1.3,0.6-1.3,1.9v6.1c0,1.3,0.4,1.9,1.3,1.9c0.9,0,1.3-0.6,1.3-1.9v-6.1
		C443,882.4,442.7,881.8,441.7,881.8z"/>
	<path class="st0" d="M448,879.8h2.6v13.9c0,3.1-0.5,4.4-3.1,4.4c-0.3,0-0.6,0-0.9,0v-2.3c0.1,0,0.2,0,0.3,0c1.1,0,1.1-0.6,1.1-2.1
		V879.8z M448,875h2.6v2.6H448V875z"/>
	<path class="st0" d="M460.8,889.6c0,2.7-1.5,4.3-3.9,4.3c-2.5,0-3.8-1.6-3.8-4.9v-4.5c0-3.3,1.2-4.9,3.9-4.9c2.6,0,3.9,1.8,3.9,5.5
		v2.1h-5.3v2.6c0,1.3,0.4,1.9,1.3,1.9c0.9,0,1.3-0.6,1.3-1.9v-1h2.5V889.6z M455.7,885h2.6v-1.4c0-1.3-0.4-1.9-1.3-1.9
		c-0.9,0-1.3,0.6-1.3,1.9V885z"/>
	<path class="st0" d="M470.8,889.6c0,2.7-1.5,4.3-3.9,4.3c-2.5,0-3.8-1.6-3.8-4.9v-4.5c0-3.3,1.2-4.9,3.8-4.9c2.5,0,3.9,1.5,3.9,4.4
		v0.6h-2.5v-1c0-1.3-0.4-1.9-1.3-1.9c-0.9,0-1.3,0.6-1.3,1.9v6.1c0,1.3,0.4,1.9,1.3,1.9c0.9,0,1.3-0.6,1.3-1.9v-1h2.5V889.6z"/>
	<path class="st0" d="M473.9,882h-1.5v-2.2h1.5v-3.7h2.6v3.7h1.8v2.2h-1.8v7.6c0,1.4,0.1,2,1.1,2c0.3,0,0.5,0,0.8-0.1v2.1
		c-0.5,0.2-0.9,0.2-1.4,0.2c-2.5,0-3-1.2-3-4.4V882z"/>
	<path class="st0" d="M482.2,889.6c0,0.1,0,0.1,0,0.1c0,1.3,0.4,2,1.2,2c0.6,0,1.1-0.5,1.1-1.4c0-1-0.8-1.9-2.1-3.1
		c-1.3-1.3-2.3-2.3-2.3-4.3c0-2.2,1.2-3.4,3.4-3.4c2,0,3.2,1.3,3.4,3.6l-2.2,0.2c-0.1-1.2-0.4-1.8-1.1-1.8c-0.7,0-1.1,0.4-1.1,1.1
		c0,1.1,0.7,1.8,1.7,2.7c1.7,1.6,2.8,2.9,2.8,4.8c0,2.2-1.4,3.6-3.5,3.6c-2.3,0-3.5-1.4-3.6-4.1L482.2,889.6z"/>
</g>
<g>
	<g>
		<path class="st1" d="M362.1,726.1c6.1,0,11.1-5,11.1-11.1c0-6.1-5-11.1-11.1-11.1c-6.1,0-11.1,5-11.1,11.1
			C351,721.1,356,726.1,362.1,726.1L362.1,726.1z M362.1,726.1"/>
		<path class="st1" d="M352.1,742.1v23.1c0,5.3,4.3,9.6,9.6,9.6h12.5v17.1c0,1.3,1.1,2.4,2.4,2.4h11.1c1.3,0,2.4-1.1,2.4-2.4v-24.6
			c0-4.5-3.6-8.1-8.1-8.1h-9.8v-17.1c0-5.5-4.5-10-10-10C356.6,732,352.1,736.5,352.1,742.1L352.1,742.1z M352.1,742.1"/>
		<path class="st1" d="M436.7,726.1c6.1,0,11.1-5,11.1-11.1c0-6.1-5-11.1-11.1-11.1c-6.1,0-11.1,5-11.1,11.1
			C425.5,721.1,430.5,726.1,436.7,726.1L436.7,726.1z M436.7,726.1"/>
		<path class="st1" d="M426.6,742.1v17.1h-9.8c-4.5,0-8.1,3.6-8.1,8.1v24.6c0,1.3,1.1,2.4,2.4,2.4h11.1c1.3,0,2.4-1.1,2.4-2.4v-17.1
			h12.5c5.3,0,9.6-4.3,9.6-9.6v-23.1c0-5.5-4.5-10-10-10C431.1,732,426.6,736.5,426.6,742.1L426.6,742.1z M426.6,742.1"/>
		<path class="st1" d="M416.1,747.9c1.6,0,2.9-1.3,2.9-2.9c0-1.6-1.3-2.9-2.9-2.9h-33.3c-1.6,0-2.9,1.3-2.9,2.9
			c0,1.6,1.3,2.9,2.9,2.9h13.8v44.4c0,1.6,1.3,2.9,2.9,2.9c1.6,0,2.9-1.3,2.9-2.9v-44.4H416.1z M416.1,747.9"/>
	</g>
	<path class="st1" d="M399.8,702.4c-8.8,0-15.9,7.1-15.9,15.9c0,8.8,7.1,15.9,15.9,15.9c8.8,0,15.9-7.1,15.9-15.9
		C415.7,709.6,408.6,702.4,399.8,702.4z M406.2,724.7h-10.5l2.1,2.1l-2.3,2.3l-5.9-5.9l5.9-5.9l2.3,2.3l-2.1,2.1h10.5V724.7z
		 M404.1,719.5l-2.3-2.3l2.1-2.1h-10.5V712h10.5l-2.1-2.1l2.3-2.3l5.9,5.9L404.1,719.5z"/>
</g>
<g>
	<path class="st0" d="M49.3,100h7.4v2.5H52v5.2h3.6v2.6H52v5.9h5.1v2.5h-7.8V100z"/>
	<path class="st0" d="M59,104.8h2.4v1.7c0.9-1.2,1.9-1.9,2.7-1.9c1.1,0,1.7,0.7,2,1.9c0.9-1.2,1.9-1.9,2.7-1.9
		c1.8,0,2.2,1.5,2.2,4.3v9.8h-2.6v-9.9c0-1.2-0.3-1.7-0.9-1.7c-0.4,0-0.8,0.3-1.2,0.9v10.7h-2.6v-9.9c0-1.2-0.3-1.7-0.9-1.7
		c-0.4,0-0.8,0.3-1.2,0.9v10.7H59V104.8z"/>
	<path class="st0" d="M73.6,104.8H76v1.4c0.8-1.1,1.7-1.6,2.6-1.6c1.7,0,2.5,1.4,2.5,4.4v5.7c0,2.8-0.8,4.2-2.6,4.2
		c-0.9,0-1.6-0.5-2.4-1.5v5.6h-2.6V104.8z M77.4,116.4c0.8,0,1.1-0.7,1.1-2.3v-4.5c0-1.9-0.2-2.7-1-2.7c-0.4,0-0.9,0.2-1.4,0.7v8.1
		C76.6,116.2,77,116.4,77.4,116.4z"/>
	<path class="st0" d="M83.6,100h2.6v6.4c0.8-1.1,1.9-1.8,2.7-1.8c1.9,0,2.3,1.4,2.3,4.3v9.8h-2.6v-9.9c0-1.2-0.3-1.8-1-1.8
		c-0.4,0-1,0.3-1.4,1v10.7h-2.6V100z"/>
	<path class="st0" d="M98.7,117.3c-0.7,1-1.7,1.5-2.7,1.5c-1.7,0-2.7-1.2-2.7-3.3c0-2.8,1.7-4.6,5.3-6.2v-0.7c0-1.2-0.4-1.8-1.3-1.8
		s-1.4,0.7-1.4,1.8h-2.5c0.2-2.6,1.7-4,4.2-4c2.6,0,3.6,1.5,3.6,4.7v6.4c0,1.2,0.1,2.2,0.3,3H99L98.7,117.3z M95.9,114.9
		c0,1,0.5,1.6,1.2,1.6c0.6,0,1.1-0.4,1.6-1.1v-3.8C96.8,112.4,95.9,113.5,95.9,114.9z"/>
	<path class="st0" d="M105.5,114.6c0,0.1,0,0.1,0,0.1c0,1.3,0.4,2,1.2,2c0.6,0,1.1-0.5,1.1-1.4c0-1-0.8-1.9-2.1-3.1
		c-1.3-1.3-2.3-2.3-2.3-4.3c0-2.2,1.2-3.4,3.4-3.4c2,0,3.2,1.3,3.4,3.6l-2.2,0.2c-0.1-1.2-0.4-1.8-1.1-1.8c-0.7,0-1.1,0.4-1.1,1.1
		c0,1.1,0.7,1.8,1.7,2.7c1.7,1.6,2.8,2.9,2.8,4.8c0,2.2-1.4,3.6-3.5,3.6c-2.3,0-3.5-1.4-3.6-4.1L105.5,114.6z"/>
	<path class="st0" d="M112.4,100h2.6v2.6h-2.6V100z M112.4,104.8h2.6v13.9h-2.6V104.8z"/>
	<path class="st0" d="M119.3,114.6c0,0.1,0,0.1,0,0.1c0,1.3,0.4,2,1.2,2c0.6,0,1.1-0.5,1.1-1.4c0-1-0.8-1.9-2.1-3.1
		c-1.3-1.3-2.3-2.3-2.3-4.3c0-2.2,1.2-3.4,3.4-3.4c2,0,3.2,1.3,3.4,3.6l-2.2,0.2c-0.1-1.2-0.4-1.8-1.1-1.8c-0.7,0-1.1,0.4-1.1,1.1
		c0,1.1,0.7,1.8,1.7,2.7c1.7,1.6,2.8,2.9,2.8,4.8c0,2.2-1.4,3.6-3.5,3.6c-2.3,0-3.5-1.4-3.6-4.1L119.3,114.6z"/>
	<path class="st0" d="M138.8,114c0,3.3-1.2,4.9-3.9,4.9c-2.7,0-3.9-1.6-3.9-4.9v-4.5c0-3.3,1.2-4.9,3.9-4.9c2.7,0,3.9,1.6,3.9,4.9
		V114z M134.9,106.8c-0.9,0-1.3,0.6-1.3,1.9v6.1c0,1.3,0.4,1.9,1.3,1.9c0.9,0,1.3-0.6,1.3-1.9v-6.1
		C136.2,107.4,135.8,106.8,134.9,106.8z"/>
	<path class="st0" d="M141.2,104.8h2.4v1.7c1-1.2,2-1.9,2.9-1.9c1.9,0,2.3,1.4,2.3,4.3v9.8h-2.6v-9.9c0-1.2-0.3-1.8-1-1.8
		c-0.4,0-1,0.3-1.4,1v10.7h-2.6V104.8z"/>
	<path class="st1" d="M27,138.4c0,0.1,0,0.1,0,0.2c0,2,0.5,3,1.6,3c0.9,0,1.4-0.7,1.4-2.1c0-1-0.4-1.8-1.1-2.8
		c-1.3-1.8-2.7-3.2-3.4-4.5c-0.6-1.2-1-2.3-1-3.3c0-2.8,1.5-4.5,3.9-4.5c2.4,0,3.9,1.7,4,4.7l-2.5,0.3c-0.1-1.7-0.5-2.6-1.5-2.6
		c-0.7,0-1.2,0.7-1.2,1.7c0,0.9,0.4,2,1.3,3.1c1.2,1.5,2.3,2.7,3,3.9c0.7,1.2,1.1,2.4,1.1,3.8c0,2.7-1.7,4.5-4.1,4.5
		c-2.5,0-4-1.8-4.2-5.2L27,138.4z"/>
	<path class="st1" d="M36.7,127.4h-2.6V125H42v2.4h-2.6v16.3h-2.8V127.4z"/>
	<path class="st1" d="M44.1,125h2.8v13.6c0,1.9,0.4,2.9,1.5,2.9c1.2,0,1.5-0.9,1.5-2.9V125h2.7v12.8c0,4.2-1,6.2-4.3,6.2
		c-3.3,0-4.3-1.9-4.3-6.2V125z"/>
	<path class="st1" d="M55.6,125h2.9c4.2,0,5.8,1.1,5.8,5.2v8.3c0,3.5-1.4,5.1-4.7,5.1h-4.1V125z M59.2,141.2c1.8,0,2.4-1,2.4-3.3
		v-7.8c0-2.1-0.5-2.8-2.3-2.8h-0.8v13.9H59.2z"/>
	<path class="st1" d="M67.1,125h7.4v2.5h-4.6v5.2h3.6v2.6h-3.6v5.9h5.1v2.5h-7.8V125z"/>
	<path class="st1" d="M77.1,125h2.7l4.2,14.4c-0.5-4.5-0.7-8.8-0.7-13c0-0.4,0-0.9,0-1.4h2.5v18.7h-2.3l-4.6-15.9
		c0.4,5.2,0.7,10.5,0.7,15.9h-2.5V125z"/>
	<path class="st1" d="M90.4,127.4h-2.6V125h7.9v2.4h-2.6v16.3h-2.8V127.4z"/>
	<path class="st1" d="M94.8,146.1l7.3-21.4h1.8l-7.3,21.4H94.8z"/>
	<path class="st1" d="M105.6,125h8v2.5h-5v5.1h3.7v2.6h-3.7v8.4h-2.9V125z"/>
	<path class="st1" d="M116.6,125h3.6l2.9,18.7h-2.8l-0.5-3.8H117l-0.4,3.8h-2.7L116.6,125z M119.5,137.4l-1-10.8h-0.1l-1.1,10.8
		H119.5z"/>
	<path class="st1" d="M129.3,144c-3.3,0-4.5-2.1-4.5-6.7v-6.1c0-4.5,1.2-6.7,4.5-6.7c2.9,0,4.5,2,4.5,5.7v0.9h-2.8v-1.5
		c0-1.9-0.5-2.8-1.7-2.8c-1.2,0-1.7,0.9-1.7,2.8v9c0,1.9,0.5,2.8,1.7,2.8c1.2,0,1.7-0.9,1.7-2.8V137h2.8v1.2
		C133.8,142,132.2,144,129.3,144z"/>
	<path class="st1" d="M136.2,125h2.8v13.6c0,1.9,0.4,2.9,1.5,2.9c1.2,0,1.5-0.9,1.5-2.9V125h2.7v12.8c0,4.2-1,6.2-4.3,6.2
		s-4.3-1.9-4.3-6.2V125z"/>
	<path class="st1" d="M147.7,125h2.8v16.1h5.1v2.6h-7.8V125z"/>
	<path class="st1" d="M158.1,127.4h-2.6V125h7.9v2.4h-2.6v16.3h-2.8V127.4z"/>
	<path class="st1" d="M167.9,136l-3.2-11h2.9l1.8,8.4l1.8-8.4h2.8l-3.3,11v7.6h-2.8V136z"/>
	<path class="st1" d="M36.9,170c-3.3,0-4.5-2.1-4.5-6.7v-6.1c0-4.5,1.2-6.7,4.5-6.7c2.9,0,4.5,2,4.5,5.7v0.9h-2.8v-1.5
		c0-1.9-0.5-2.8-1.7-2.8s-1.7,0.9-1.7,2.8v9c0,1.9,0.5,2.8,1.7,2.8s1.7-0.9,1.7-2.8V163h2.8v1.2C41.4,168,39.8,170,36.9,170z"/>
	<path class="st1" d="M48.1,150.6c3.3,0,4.5,2.1,4.5,6.7v6.1c0,4.5-1.2,6.7-4.5,6.7s-4.5-2.1-4.5-6.7v-6.1
		C43.7,152.8,44.8,150.6,48.1,150.6z M46.5,164.8c0,1.9,0.5,2.8,1.7,2.8c1.2,0,1.7-0.9,1.7-2.8v-9c0-1.9-0.5-2.8-1.7-2.8
		c-1.2,0-1.7,0.9-1.7,2.8V164.8z"/>
	<path class="st1" d="M55.4,151h2.8v16.1h5.1v2.6h-7.8V151z"/>
	<path class="st1" d="M65.2,151H68v16.1h5.1v2.6h-7.8V151z"/>
	<path class="st1" d="M77.3,151h3.6l2.9,18.7h-2.8l-0.5-3.8h-2.8l-0.4,3.8h-2.7L77.3,151z M80.2,163.4l-1-10.8H79l-1.1,10.8H80.2z"
		/>
	<path class="st1" d="M85.9,151h3.5c3.9,0,5.3,1.1,5.3,4.9c0,2.2-0.5,3.5-1.9,4.1c1.5,0.6,2.1,2,2.1,4.4c0,3.8-1.6,5.4-5.4,5.4h-3.6
		V151z M89.5,158.8c1.8,0,2.3-0.8,2.3-2.8c0-2-0.6-2.7-2.3-2.7h-0.9v5.4H89.5z M89.6,167.3c1.9,0,2.5-0.9,2.5-3.2
		c0-2.1-0.6-2.8-2.5-2.8h-1v6H89.6z"/>
	<path class="st1" d="M101.7,150.6c3.3,0,4.5,2.1,4.5,6.7v6.1c0,4.5-1.2,6.7-4.5,6.7s-4.5-2.1-4.5-6.7v-6.1
		C97.2,152.8,98.4,150.6,101.7,150.6z M100.1,164.8c0,1.9,0.5,2.8,1.7,2.8c1.2,0,1.7-0.9,1.7-2.8v-9c0-1.9-0.5-2.8-1.7-2.8
		c-1.2,0-1.7,0.9-1.7,2.8V164.8z"/>
	<path class="st1" d="M109,151h3c4.2,0,5.7,1.2,5.7,5.4c0,2.5-0.6,4-2.2,4.8l2.5,8.4h-2.8l-2.2-7.8h-1.2v7.8H109V151z M112.4,159.4
		c1.9,0,2.5-0.8,2.5-3.1c0-2.1-0.5-2.9-2.2-2.9h-0.9v6H112.4z"/>
	<path class="st1" d="M122.5,151h3.6l2.9,18.7h-2.8l-0.5-3.8H123l-0.4,3.8h-2.7L122.5,151z M125.5,163.4l-1-10.8h-0.1l-1.1,10.8
		H125.5z"/>
	<path class="st1" d="M131.8,153.4h-2.6V151h7.9v2.4h-2.6v16.3h-2.8V153.4z"/>
	<path class="st1" d="M139.3,169.7V151h2.8v18.7H139.3z"/>
	<path class="st1" d="M149.3,150.6c3.3,0,4.5,2.1,4.5,6.7v6.1c0,4.5-1.2,6.7-4.5,6.7s-4.5-2.1-4.5-6.7v-6.1
		C144.8,152.8,146,150.6,149.3,150.6z M147.6,164.8c0,1.9,0.5,2.8,1.7,2.8c1.2,0,1.7-0.9,1.7-2.8v-9c0-1.9-0.5-2.8-1.7-2.8
		c-1.2,0-1.7,0.9-1.7,2.8V164.8z"/>
	<path class="st1" d="M156.5,151h2.7l4.2,14.4c-0.5-4.5-0.7-8.8-0.7-13c0-0.4,0-0.9,0-1.4h2.5v18.7h-2.3l-4.6-15.9
		c0.4,5.2,0.7,10.5,0.7,15.9h-2.5V151z"/>
	<path class="st0" d="M13.3,179.9h-1.5v-2.1h1.5V176c0-2.4,0.7-3.2,2.9-3.2h1.3v2.1H17c-0.9,0-1.1,0.4-1.1,1.4v1.4h1.6v2.1h-1.6
		v11.7h-2.6V179.9z"/>
	<path class="st0" d="M27.1,187c0,3.3-1.2,4.9-3.9,4.9s-3.9-1.6-3.9-4.9v-4.5c0-3.3,1.2-4.9,3.9-4.9c2.7,0,3.9,1.6,3.9,4.9V187z
		 M23.2,179.8c-0.9,0-1.3,0.6-1.3,1.9v6.1c0,1.3,0.4,1.9,1.3,1.9c0.9,0,1.3-0.6,1.3-1.9v-6.1C24.5,180.4,24.1,179.8,23.2,179.8z"/>
	<path class="st0" d="M29.5,177.8h2.4v1.8c0.7-1.3,1.6-2,3-2v2.8c-0.4-0.1-0.7-0.1-1.2-0.1c-1.4,0-1.7,0.8-1.7,2.5v8.9h-2.6V177.8z"
		/>
	<path class="st0" d="M41.5,177.8h2.4v1.8c0.7-1.3,1.6-2,3-2v2.8c-0.4-0.1-0.7-0.1-1.2-0.1c-1.4,0-1.7,0.8-1.7,2.5v8.9h-2.6V177.8z"
		/>
	<path class="st0" d="M56.3,187.6c0,2.7-1.5,4.3-3.9,4.3c-2.5,0-3.8-1.6-3.8-4.9v-4.5c0-3.3,1.2-4.9,3.9-4.9c2.6,0,3.9,1.8,3.9,5.5
		v2.1h-5.3v2.6c0,1.3,0.4,1.9,1.3,1.9c0.9,0,1.3-0.6,1.3-1.9v-1h2.5V187.6z M51.2,183h2.6v-1.4c0-1.3-0.4-1.9-1.3-1.9
		c-0.9,0-1.3,0.6-1.3,1.9V183z"/>
	<path class="st0" d="M60.5,187.6c0,0.1,0,0.1,0,0.1c0,1.3,0.4,2,1.2,2c0.6,0,1.1-0.5,1.1-1.4c0-1-0.8-1.9-2.1-3.1
		c-1.3-1.3-2.3-2.3-2.3-4.3c0-2.2,1.2-3.4,3.4-3.4c2,0,3.2,1.3,3.4,3.6l-2.2,0.2c-0.1-1.2-0.4-1.8-1.1-1.8c-0.7,0-1.1,0.4-1.1,1.1
		c0,1.1,0.7,1.8,1.7,2.7c1.7,1.6,2.8,2.9,2.8,4.8c0,2.2-1.4,3.6-3.5,3.6c-2.3,0-3.5-1.4-3.6-4.1L60.5,187.6z"/>
	<path class="st0" d="M74.9,187.6c0,2.7-1.5,4.3-3.9,4.3c-2.5,0-3.8-1.6-3.8-4.9v-4.5c0-3.3,1.2-4.9,3.9-4.9c2.6,0,3.9,1.8,3.9,5.5
		v2.1h-5.3v2.6c0,1.3,0.4,1.9,1.3,1.9c0.9,0,1.3-0.6,1.3-1.9v-1h2.5V187.6z M69.8,183h2.6v-1.4c0-1.3-0.4-1.9-1.3-1.9
		c-0.9,0-1.3,0.6-1.3,1.9V183z"/>
	<path class="st0" d="M82.3,190.3c-0.7,1-1.7,1.5-2.7,1.5c-1.7,0-2.7-1.2-2.7-3.3c0-2.8,1.7-4.6,5.3-6.2v-0.7c0-1.2-0.4-1.8-1.3-1.8
		c-0.9,0-1.4,0.7-1.4,1.8h-2.5c0.2-2.6,1.7-4,4.2-4c2.6,0,3.6,1.5,3.6,4.7v6.4c0,1.2,0.1,2.2,0.3,3h-2.5L82.3,190.3z M79.5,187.9
		c0,1,0.5,1.6,1.2,1.6c0.6,0,1.1-0.4,1.6-1.1v-3.8C80.4,185.4,79.5,186.5,79.5,187.9z"/>
	<path class="st0" d="M87.3,177.8h2.4v1.8c0.7-1.3,1.6-2,3-2v2.8c-0.4-0.1-0.7-0.1-1.2-0.1c-1.4,0-1.7,0.8-1.7,2.5v8.9h-2.6V177.8z"
		/>
	<path class="st0" d="M102.1,187.6c0,2.7-1.5,4.3-3.9,4.3c-2.5,0-3.8-1.6-3.8-4.9v-4.5c0-3.3,1.2-4.9,3.8-4.9c2.5,0,3.9,1.5,3.9,4.4
		v0.6h-2.5v-1c0-1.3-0.4-1.9-1.3-1.9c-0.9,0-1.3,0.6-1.3,1.9v6.1c0,1.3,0.4,1.9,1.3,1.9c0.9,0,1.3-0.6,1.3-1.9v-1h2.5V187.6z"/>
	<path class="st0" d="M104.4,173h2.6v6.4c0.8-1.1,1.9-1.8,2.7-1.8c1.9,0,2.3,1.4,2.3,4.3v9.8h-2.6v-9.9c0-1.2-0.3-1.8-1-1.8
		c-0.4,0-1,0.3-1.4,1v10.7h-2.6V173z"/>
	<path class="st0" d="M119.7,177.8h2.5v1.4c0.8-1.1,1.7-1.6,2.6-1.6c1.7,0,2.5,1.4,2.5,4.4v5.7c0,2.8-0.8,4.2-2.6,4.2
		c-0.9,0-1.6-0.5-2.4-1.5v5.6h-2.6V177.8z M123.6,189.4c0.8,0,1.1-0.7,1.1-2.3v-4.5c0-1.9-0.2-2.7-1-2.7c-0.4,0-0.9,0.2-1.4,0.7v8.1
		C122.8,189.2,123.2,189.4,123.6,189.4z"/>
	<path class="st0" d="M129.8,177.8h2.4v1.8c0.7-1.3,1.6-2,3-2v2.8c-0.4-0.1-0.7-0.1-1.2-0.1c-1.4,0-1.7,0.8-1.7,2.5v8.9h-2.6V177.8z
		"/>
	<path class="st0" d="M144.6,187c0,3.3-1.2,4.9-3.9,4.9c-2.7,0-3.9-1.6-3.9-4.9v-4.5c0-3.3,1.2-4.9,3.9-4.9c2.7,0,3.9,1.6,3.9,4.9
		V187z M140.7,179.8c-0.9,0-1.3,0.6-1.3,1.9v6.1c0,1.3,0.4,1.9,1.3,1.9c0.9,0,1.3-0.6,1.3-1.9v-6.1
		C142,180.4,141.7,179.8,140.7,179.8z"/>
	<path class="st0" d="M147,177.8h2.6v13.9c0,3.1-0.5,4.4-3.1,4.4c-0.3,0-0.6,0-0.9,0v-2.3c0.1,0,0.2,0,0.3,0c1.1,0,1.1-0.6,1.1-2.1
		V177.8z M147,173h2.6v2.6H147V173z"/>
	<path class="st0" d="M159.8,187.6c0,2.7-1.5,4.3-3.9,4.3c-2.5,0-3.8-1.6-3.8-4.9v-4.5c0-3.3,1.2-4.9,3.9-4.9c2.6,0,3.9,1.8,3.9,5.5
		v2.1h-5.3v2.6c0,1.3,0.4,1.9,1.3,1.9c0.9,0,1.3-0.6,1.3-1.9v-1h2.5V187.6z M154.7,183h2.6v-1.4c0-1.3-0.4-1.9-1.3-1.9
		c-0.9,0-1.3,0.6-1.3,1.9V183z"/>
	<path class="st0" d="M169.8,187.6c0,2.7-1.5,4.3-3.9,4.3c-2.5,0-3.8-1.6-3.8-4.9v-4.5c0-3.3,1.2-4.9,3.8-4.9c2.5,0,3.9,1.5,3.9,4.4
		v0.6h-2.5v-1c0-1.3-0.4-1.9-1.3-1.9c-0.9,0-1.3,0.6-1.3,1.9v6.1c0,1.3,0.4,1.9,1.3,1.9c0.9,0,1.3-0.6,1.3-1.9v-1h2.5V187.6z"/>
	<path class="st0" d="M172.9,180h-1.5v-2.2h1.5v-3.7h2.6v3.7h1.8v2.2h-1.8v7.6c0,1.4,0.1,2,1.1,2c0.3,0,0.5,0,0.8-0.1v2.1
		c-0.5,0.2-0.9,0.2-1.4,0.2c-2.5,0-3-1.2-3-4.4V180z"/>
	<path class="st0" d="M181.2,187.6c0,0.1,0,0.1,0,0.1c0,1.3,0.4,2,1.2,2c0.6,0,1.1-0.5,1.1-1.4c0-1-0.8-1.9-2.1-3.1
		c-1.3-1.3-2.3-2.3-2.3-4.3c0-2.2,1.2-3.4,3.4-3.4c2,0,3.2,1.3,3.4,3.6l-2.2,0.2c-0.1-1.2-0.4-1.8-1.1-1.8c-0.7,0-1.1,0.4-1.1,1.1
		c0,1.1,0.7,1.8,1.7,2.7c1.7,1.6,2.8,2.9,2.8,4.8c0,2.2-1.4,3.6-3.5,3.6c-2.3,0-3.5-1.4-3.6-4.1L181.2,187.6z"/>
</g>
<g>
	<g>
		<path class="st1" d="M61.1,24.1c6.1,0,11.1-5,11.1-11.1s-5-11.1-11.1-11.1C55,1.9,50,6.9,50,13S55,24.1,61.1,24.1L61.1,24.1z
			 M61.1,24.1"/>
		<path class="st1" d="M51.1,40.1v23.1c0,5.3,4.3,9.6,9.6,9.6h12.5v17.1c0,1.3,1.1,2.4,2.4,2.4h11.1c1.3,0,2.4-1.1,2.4-2.4V65.2
			c0-4.5-3.6-8.1-8.1-8.1h-9.8V40.1c0-5.5-4.5-10-10-10C55.6,30,51.1,34.5,51.1,40.1L51.1,40.1z M51.1,40.1"/>
		<path class="st1" d="M135.7,24.1c6.1,0,11.1-5,11.1-11.1s-5-11.1-11.1-11.1c-6.1,0-11.1,5-11.1,11.1S129.5,24.1,135.7,24.1
			L135.7,24.1z M135.7,24.1"/>
		<path class="st1" d="M125.6,40.1v17.1h-9.8c-4.5,0-8.1,3.6-8.1,8.1v24.6c0,1.3,1.1,2.4,2.4,2.4h11.1c1.3,0,2.4-1.1,2.4-2.4V72.8
			h12.5c5.3,0,9.6-4.3,9.6-9.6V40.1c0-5.5-4.5-10-10-10C130.1,30,125.6,34.5,125.6,40.1L125.6,40.1z M125.6,40.1"/>
		<path class="st1" d="M115.1,45.9c1.6,0,2.9-1.3,2.9-2.9c0-1.6-1.3-2.9-2.9-2.9H81.7c-1.6,0-2.9,1.3-2.9,2.9c0,1.6,1.3,2.9,2.9,2.9
			h13.8v44.4c0,1.6,1.3,2.9,2.9,2.9c1.6,0,2.9-1.3,2.9-2.9V45.9H115.1z M115.1,45.9"/>
	</g>
	<path class="st1" d="M98.8,0.4c-8.8,0-15.9,7.1-15.9,15.9S90,32.3,98.8,32.3s15.9-7.1,15.9-15.9S107.6,0.4,98.8,0.4z M105.2,22.7
		H94.7l2.1,2.1L94.5,27l-5.9-5.9l5.9-5.9l2.3,2.3l-2.1,2.1h10.5V22.7z M103.1,17.5l-2.3-2.3l2.1-2.1H92.4V10h10.5l-2.1-2.1l2.3-2.3
		l5.9,5.9L103.1,17.5z"/>
</g>
<g>
</g>
<g>
</g>
<g>
</g>
<g>
</g>
<g>
</g>
<g>
</g>
<g>
</g>
<g>
</g>
<g>
</g>
<g>
</g>
<g>
</g>
<g>
</g>
<g>
</g>
<g>
</g>
<g>
</g>
</svg>
